<?xml version="1.0" encoding="utf-8"?>
<!-- Generator: Adobe Illustrator 25.0.1, SVG Export Plug-In . SVG Version: 6.00 Build 0)  -->
<svg version="1.1" id="Calque_1" xmlns="http://www.w3.org/2000/svg" xmlns:xlink="http://www.w3.org/1999/xlink" x="0px" y="0px"
	 viewBox="0 0 100 100" style="enable-background:new 0 0 100 100;" xml:space="preserve">
<style type="text/css">
	.st0{fill:#FFFFFF;}
	.st1{fill:#BBD6F1;}
	.st2{fill:#3B97D3;}
</style>
<g>
	<path class="st0" d="M58.25,58.05V8.26c0-4.58-3.71-8.28-8.28-8.28c-4.58,0-8.28,3.71-8.28,8.28v49.8
		c-7.92,3.26-13.5,11.05-13.5,20.14c0,12.03,9.75,21.78,21.78,21.78c12.03,0,21.78-9.75,21.78-21.78
		C71.74,69.1,66.16,61.32,58.25,58.05z"/>
	<path class="st1" d="M49.96,96c-9.82,0-17.8-7.99-17.8-17.8c0-7.24,4.33-13.7,11.03-16.46l2.46-1.01V8.26
		c0-2.38,1.93-4.31,4.31-4.31c2.38,0,4.31,1.93,4.31,4.31v52.46l2.46,1.01c6.7,2.76,11.03,9.22,11.03,16.46
		C67.77,88.01,59.78,96,49.96,96z"/>
	<path class="st2" d="M56.73,61.73l-2.46-1.01v-7.93h-8.61v7.93l-2.46,1.01c-6.7,2.76-11.03,9.22-11.03,16.46
		c0,9.82,7.99,17.8,17.8,17.8s17.8-7.99,17.8-17.8C67.77,70.95,63.44,64.49,56.73,61.73z"/>
	<g>
		<path class="st0" d="M49.96,87.24L49.96,87.24c-0.85,0-1.54-0.69-1.54-1.54V71.47c0-0.85,0.69-1.54,1.54-1.54l0,0
			c0.85,0,1.54,0.69,1.54,1.54V85.7C51.51,86.54,50.81,87.24,49.96,87.24z"/>
		<path class="st0" d="M42.81,83.46L42.81,83.46c-0.48-0.7-0.3-1.67,0.4-2.14l11.75-8.02c0.7-0.48,1.67-0.3,2.14,0.4l0,0
			c0.48,0.7,0.3,1.67-0.4,2.14l-11.75,8.02C44.26,84.34,43.29,84.16,42.81,83.46z"/>
		<path class="st0" d="M57.11,83.46L57.11,83.46c0.48-0.7,0.3-1.67-0.4-2.14L44.96,73.3c-0.7-0.48-1.67-0.3-2.14,0.4l0,0
			c-0.48,0.7-0.3,1.67,0.4,2.14l11.75,8.02C55.67,84.34,56.63,84.16,57.11,83.46z"/>
	</g>
</g>
</svg>
