<?xml version="1.0" encoding="utf-8"?>
<!-- Generator: Adobe Illustrator 25.0.1, SVG Export Plug-In . SVG Version: 6.00 Build 0)  -->
<svg version="1.1" id="Calque_1" xmlns="http://www.w3.org/2000/svg" xmlns:xlink="http://www.w3.org/1999/xlink" x="0px" y="0px"
	 viewBox="0 0 100 100" style="enable-background:new 0 0 100 100;" xml:space="preserve">
<style type="text/css">
	.st0{fill:#FFFFFF;}
</style>
<g>
	<path class="st0" d="M49.96,99.98L49.96,99.98c-2.44,0-4.42-1.98-4.42-4.42V4.4c0-2.44,1.98-4.42,4.42-4.42h0
		c2.44,0,4.42,1.98,4.42,4.42v91.15C54.39,97.99,52.41,99.98,49.96,99.98z"/>
	<g>
		<path class="st0" d="M67.36,7.24c1.17,1.17,1.17,3.06,0,4.22L50.04,28.79l-0.07-0.08l-0.08,0.08L32.57,11.46
			c-1.17-1.17-1.17-3.06,0-4.22l2.04-2.03c1.17-1.16,3.05-1.16,4.22,0l9.03,9.03c1.17,1.17,3.06,1.17,4.22,0l9.02-9.03
			c1.17-1.17,3.06-1.17,4.22,0L67.36,7.24z"/>
		<path class="st0" d="M32.57,92.71c-1.17-1.17-1.17-3.06,0-4.22l17.32-17.33l0.07,0.08l0.08-0.08l17.32,17.32
			c1.17,1.17,1.17,3.06,0,4.22l-2.04,2.03c-1.17,1.16-3.05,1.16-4.22,0l-9.03-9.03c-1.17-1.17-3.06-1.17-4.22,0l-9.02,9.03
			c-1.17,1.17-3.06,1.17-4.22,0L32.57,92.71z"/>
	</g>
	<path class="st0" d="M-0.04,49.98L-0.04,49.98c0-2.44,1.98-4.42,4.42-4.42h91.15c2.44,0,4.42,1.98,4.42,4.42v0
		c0,2.44-1.98,4.42-4.42,4.42H4.39C1.94,54.4-0.04,52.42-0.04,49.98z"/>
	<g>
		<path class="st0" d="M92.7,67.37c-1.17,1.17-3.05,1.17-4.22,0L71.15,50.05l0.08-0.07l-0.08-0.08l17.32-17.32
			c1.17-1.17,3.06-1.17,4.22,0l2.03,2.04c1.16,1.17,1.16,3.05,0,4.22l-9.03,9.03c-1.17,1.17-1.17,3.06,0,4.22l9.03,9.02
			c1.17,1.17,1.17,3.06,0,4.22L92.7,67.37z"/>
		<path class="st0" d="M7.23,32.58c1.17-1.17,3.06-1.17,4.22,0L28.78,49.9l-0.08,0.07l0.08,0.08L11.45,67.37
			c-1.17,1.17-3.06,1.17-4.22,0L5.2,65.33c-1.16-1.17-1.16-3.05,0-4.22l9.03-9.03c1.17-1.17,1.17-3.06,0-4.22L5.2,38.83
			c-1.17-1.17-1.17-3.06,0-4.22L7.23,32.58z"/>
	</g>
	<path class="st0" d="M26.08,73.86L26.08,73.86c-1.17-1.17-1.17-3.06,0-4.23l43.55-43.55c1.17-1.17,3.06-1.17,4.22,0l0,0
		c1.17,1.17,1.17,3.06,0,4.22L30.3,73.86C29.14,75.03,27.25,75.03,26.08,73.86z"/>
	<g>
		<path class="st0" d="M78.68,36.9c0,1.65-1.34,2.98-2.98,2.99l-15.58,0l0.01-0.07h-0.08V24.24c0-1.65,1.34-2.99,2.99-2.99h0.01
			c1.65,0,2.98,1.34,2.98,2.99v6.69c0,1.65,1.34,2.99,2.99,2.99l6.68,0C77.35,33.92,78.68,35.25,78.68,36.9L78.68,36.9z"/>
		<path class="st0" d="M21.24,63.05c0-1.65,1.34-2.98,2.98-2.99l15.58,0l-0.01,0.07h0.08v15.58c0,1.65-1.34,2.99-2.99,2.99h-0.01
			c-1.65,0-2.98-1.34-2.98-2.99v-6.69c0-1.65-1.34-2.99-2.99-2.99l-6.68,0C22.58,66.03,21.24,64.7,21.24,63.05L21.24,63.05z"/>
	</g>
	<path class="st0" d="M26.08,26.09L26.08,26.09c1.17-1.17,3.06-1.17,4.23,0l43.55,43.55c1.17,1.17,1.17,3.06,0,4.22l0,0
		c-1.17,1.17-3.06,1.17-4.22,0L26.08,30.32C24.91,29.15,24.91,27.26,26.08,26.09z"/>
	<g>
		<path class="st0" d="M63.03,78.7c-1.65,0-2.98-1.34-2.99-2.98l0-15.58l0.07,0.01v-0.08H75.7c1.65,0,2.99,1.34,2.99,2.99v0.01
			c0,1.65-1.34,2.98-2.99,2.98H69c-1.65,0-2.99,1.34-2.99,2.99l0,6.68C66.02,77.36,64.68,78.7,63.03,78.7L63.03,78.7z"/>
		<path class="st0" d="M36.89,21.25c1.65,0,2.98,1.34,2.99,2.98l0,15.58l-0.07-0.01v0.08H24.23c-1.65,0-2.99-1.34-2.99-2.99l0-0.01
			c0-1.65,1.34-2.98,2.98-2.98h6.69c1.65,0,2.99-1.34,2.98-2.99l0-6.68C33.9,22.59,35.24,21.25,36.89,21.25L36.89,21.25z"/>
	</g>
</g>
</svg>
