<?xml version="1.0" encoding="utf-8"?>
<!-- Generator: Adobe Illustrator 25.0.1, SVG Export Plug-In . SVG Version: 6.00 Build 0)  -->
<svg version="1.1" id="Calque_1" xmlns="http://www.w3.org/2000/svg" xmlns:xlink="http://www.w3.org/1999/xlink" x="0px" y="0px"
	 viewBox="0 0 100 100" style="enable-background:new 0 0 100 100;" xml:space="preserve">
<style type="text/css">
	.st0{fill:#BBD6F1;}
	.st1{fill:#FFFFFF;}
</style>
<g>
	<path class="st0" d="M92.11,47.83c-0.03,0-0.07,0.01-0.1,0.01c0.62-1.44,0.97-3.03,0.97-4.7c0-6.55-5.31-11.86-11.86-11.86
		c-2.32,0-4.47,0.67-6.29,1.82c-2.47-6-8.37-10.23-15.26-10.23c-9.12,0-16.51,7.39-16.51,16.51c0,0.69,0.06,1.36,0.14,2.03
		c-0.05,0-0.09-0.01-0.14-0.01C36.95,41.4,32,46.35,32,52.46c0,6.11,4.95,11.07,11.07,11.07h49.05c4.33,0,7.85-3.51,7.85-7.85
		C99.96,51.35,96.45,47.83,92.11,47.83z"/>
	<path class="st1" d="M72.45,58.16c-0.04,0-0.08,0.01-0.12,0.01c0.75-1.74,1.17-3.65,1.17-5.67c0-7.9-6.4-14.3-14.3-14.3
		c-2.79,0-5.39,0.81-7.59,2.2c-2.98-7.24-10.09-12.34-18.4-12.34c-10.99,0-19.9,8.91-19.9,19.9c0,0.83,0.07,1.64,0.17,2.45
		c-0.06,0-0.11-0.01-0.17-0.01c-7.37,0-13.34,5.97-13.34,13.34s5.97,13.34,13.34,13.34h59.14c5.23,0,9.46-4.24,9.46-9.46
		C81.91,62.39,77.67,58.16,72.45,58.16z"/>
</g>
</svg>
