<?xml version="1.0" encoding="utf-8"?>
<!-- Generator: Adobe Illustrator 25.0.1, SVG Export Plug-In . SVG Version: 6.00 Build 0)  -->
<svg version="1.1" id="Calque_1" xmlns="http://www.w3.org/2000/svg" xmlns:xlink="http://www.w3.org/1999/xlink" x="0px" y="0px"
	 viewBox="0 0 100 100" style="enable-background:new 0 0 100 100;" xml:space="preserve">
<style type="text/css">
	.st0{fill:#FDC500;}
</style>
<g>
	
		<ellipse transform="matrix(0.8941 -0.4479 0.4479 0.8941 -17.093 27.6741)" class="st0" cx="49.96" cy="49.98" rx="20.22" ry="20.22"/>
	<g>
		<path class="st0" d="M49.96,22.07L49.96,22.07c-1.34,0-2.42-1.09-2.42-2.42V2.4c0-1.34,1.09-2.42,2.42-2.42l0,0
			c1.34,0,2.42,1.09,2.42,2.42v17.25C52.39,20.99,51.3,22.07,49.96,22.07z"/>
		<path class="st0" d="M49.96,99.98L49.96,99.98c-1.34,0-2.42-1.09-2.42-2.42V80.3c0-1.34,1.09-2.42,2.42-2.42l0,0
			c1.34,0,2.42,1.09,2.42,2.42v17.25C52.39,98.89,51.3,99.98,49.96,99.98z"/>
	</g>
	<g>
		<path class="st0" d="M69.69,30.24L69.69,30.24c-0.95-0.95-0.95-2.48,0-3.43l12.2-12.2c0.95-0.95,2.48-0.95,3.43,0l0,0
			c0.95,0.95,0.95,2.48,0,3.43l-12.2,12.2C72.18,31.19,70.64,31.19,69.69,30.24z"/>
		<path class="st0" d="M14.61,85.33L14.61,85.33c-0.95-0.95-0.95-2.48,0-3.43l12.2-12.2c0.95-0.95,2.48-0.95,3.43,0l0,0
			c0.95,0.95,0.95,2.48,0,3.43l-12.2,12.2C17.09,86.28,15.55,86.28,14.61,85.33z"/>
	</g>
	<g>
		<path class="st0" d="M77.87,49.98L77.87,49.98c0-1.34,1.09-2.42,2.42-2.42h17.25c1.34,0,2.42,1.09,2.42,2.42l0,0
			c0,1.34-1.09,2.42-2.42,2.42H80.29C78.95,52.4,77.87,51.31,77.87,49.98z"/>
		<path class="st0" d="M-0.04,49.98L-0.04,49.98c0-1.34,1.09-2.42,2.42-2.42h17.25c1.34,0,2.42,1.09,2.42,2.42l0,0
			c0,1.34-1.09,2.42-2.42,2.42H2.39C1.05,52.4-0.04,51.31-0.04,49.98z"/>
	</g>
	<g>
		<path class="st0" d="M69.69,69.71L69.69,69.71c0.95-0.95,2.48-0.95,3.43,0l12.2,12.2c0.95,0.95,0.95,2.48,0,3.43l0,0
			c-0.95,0.95-2.48,0.95-3.43,0l-12.2-12.2C68.75,72.19,68.75,70.65,69.69,69.71z"/>
		<path class="st0" d="M14.61,14.62L14.61,14.62c0.95-0.95,2.48-0.95,3.43,0l12.2,12.2c0.95,0.95,0.95,2.48,0,3.43l0,0
			c-0.95,0.95-2.48,0.95-3.43,0l-12.2-12.2C13.66,17.1,13.66,15.57,14.61,14.62z"/>
	</g>
</g>
</svg>
