<?xml version="1.0" encoding="utf-8"?>
<!-- Generator: Adobe Illustrator 25.0.1, SVG Export Plug-In . SVG Version: 6.00 Build 0)  -->
<svg version="1.1" id="Calque_1" xmlns="http://www.w3.org/2000/svg" xmlns:xlink="http://www.w3.org/1999/xlink" x="0px" y="0px"
	 viewBox="0 0 100 100" style="enable-background:new 0 0 100 100;" xml:space="preserve">
<style type="text/css">
	.st0{fill:#FFFFFF;}
</style>
<g>
	<path class="st0" d="M79.4,56.1c-0.04,0-0.09,0.01-0.13,0.01c0.82-1.91,1.29-4,1.29-6.21c0-8.66-7.02-15.67-15.67-15.67
		c-3.06,0-5.9,0.89-8.32,2.41C53.3,28.7,45.5,23.11,36.39,23.11c-12.04,0-21.81,9.76-21.81,21.81c0,0.91,0.07,1.8,0.18,2.68
		c-0.06,0-0.12-0.01-0.18-0.01c-8.08,0-14.62,6.55-14.62,14.62s6.55,14.62,14.62,14.62H79.4c5.73,0,10.37-4.64,10.37-10.37
		C89.77,60.74,85.13,56.1,79.4,56.1z"/>
	<path class="st0" d="M71.34,26.71H38.19c-0.99,0-1.8-0.81-1.8-1.8l0,0c0-0.99,0.81-1.8,1.8-1.8h33.15c0.99,0,1.8,0.81,1.8,1.8l0,0
		C73.13,25.9,72.33,26.71,71.34,26.71z"/>
	<path class="st0" d="M98.16,26.71H78.93c-0.99,0-1.8-0.81-1.8-1.8l0,0c0-0.99,0.81-1.8,1.8-1.8h19.23c0.99,0,1.8,0.81,1.8,1.8l0,0
		C99.96,25.9,99.16,26.71,98.16,26.71z"/>
	<path class="st0" d="M84.95,37.83H65.12c-0.99,0-1.8-0.81-1.8-1.8l0,0c0-0.99,0.81-1.8,1.8-1.8h19.83c0.99,0,1.8,0.81,1.8,1.8l0,0
		C86.75,37.02,85.94,37.83,84.95,37.83z"/>
	<path class="st0" d="M98.06,37.83H92.8c-0.99,0-1.8-0.81-1.8-1.8l0,0c0-0.99,0.81-1.8,1.8-1.8h5.26c0.99,0,1.8,0.81,1.8,1.8l0,0
		C99.86,37.02,99.06,37.83,98.06,37.83z"/>
	<path class="st0" d="M98.06,59.57H65.12c-0.99,0-1.8-0.81-1.8-1.8l0,0c0-0.99,0.81-1.8,1.8-1.8h32.95c0.99,0,1.8,0.81,1.8,1.8l0,0
		C99.86,58.77,99.06,59.57,98.06,59.57z"/>
	<path class="st0" d="M98.06,76.84H65.12c-0.99,0-1.8-0.81-1.8-1.8l0,0c0-0.99,0.81-1.8,1.8-1.8h32.95c0.99,0,1.8,0.81,1.8,1.8l0,0
		C99.86,76.03,99.06,76.84,98.06,76.84z"/>
</g>
</svg>
